<svg id="command-svg" viewBox="0 0 34 34" xmlns="http://www.w3.org/2000/svg" fill="#92949c">
  <g>
    <path
      d="m27.5 3.5h-21c-3.033 0-5.5 2.468-5.5 5.5v16c0 3.032 2.467 5.5 5.5 5.5h21c3.033 0 5.5-2.468 5.5-5.5v-16c0-3.032-2.467-5.5-5.5-5.5zm2.5 21.5c0 1.379-1.122 2.5-2.5 2.5h-21c-1.378 0-2.5-1.121-2.5-2.5v-16c0-1.379 1.122-2.5 2.5-2.5h21c1.378 0 2.5 1.121 2.5 2.5z" />
    <path
      d="m16.56 15.888-7-7c-.586-.586-1.535-.586-2.121 0s-.586 1.535 0 2.121l5.939 5.939-6.044 6.044c-.586.586-.586 1.535 0 2.121s1.535.586 2.121 0l7.105-7.105c.281-.281.44-.663.44-1.06s-.158-.779-.44-1.06z" />
    <path
      d="m26.5 22.553h-8c-.829 0-1.5.672-1.5 1.5s.671 1.5 1.5 1.5h8c.829 0 1.5-.672 1.5-1.5s-.671-1.5-1.5-1.5z" />
  </g>
</svg>