<svg version="1.1" id="move" xmlns="http://www.w3.org/2000/svg"
	xmlns:xlink="http://www.w3.org/1999/xlink" x="0px" y="0px"
	viewBox="0 0 492 492" style="enable-background:new 0 0 492 492;" xml:space="preserve" fill="#ffff">
<g>
	<g>
		<path d="M226.9,7.9L49.2,185.5c-5.1,5.1-7.9,11.8-7.9,19c0,7.2,2.8,14,7.9,19l16.1,16.1c5.1,5.1,11.8,7.9,19,7.9
			c7.2,0,14.2-2.8,19.3-7.9l103.9-103.7v329.3c0,14.8,11.6,26.6,26.5,26.6h22.8c14.9,0,27.6-11.7,27.6-26.6V134.9l104.5,104.8
			c5.1,5.1,11.7,7.9,18.9,7.9c7.2,0,13.9-2.8,18.9-7.9l16.1-16.1c5.1-5.1,7.8-11.8,7.8-19c0-7.2-2.8-14-7.9-19L265.1,7.9
			C260,2.8,253.2,0,246,0C238.8,0,232,2.8,226.9,7.9z"/>
	</g>
</g>
</svg>