<svg version="1.1" id="Layer_1" xmlns="http://www.w3.org/2000/svg"
	fill="#ffff"
	xmlns:xlink="http://www.w3.org/1999/xlink" x="0px" y="0px"
	viewBox="0 0 128 93" style="enable-background:new 0 0 128 93;" xml:space="preserve">
<g>
	<path d="M18.9,72.7c-3.7,0-6.7,3-6.7,6.7s3,6.7,6.7,6.7s6.7-3,6.7-6.7l0,0C25.6,75.7,22.6,72.7,18.9,72.7z M18.9,82.6
		c-1.8,0-3.2-1.4-3.2-3.2c0-1.8,1.4-3.2,3.2-3.2c1.8,0,3.2,1.4,3.2,3.2l0,0C22.1,81.1,20.7,82.6,18.9,82.6z"/>
	<path d="M109.1,65.7c-0.5,0-1,0-1.5,0.1l-4.1-8.3l6.5-3.7c0.5-0.3,0.9-0.9,0.9-1.5v-5.9l4.2-3c0.5-0.3,0.7-0.9,0.7-1.4V31.7
		c0-0.7-0.4-1.3-1.1-1.6L81.6,15.9c-0.2-0.1-0.5-0.1-0.7-0.1H53.4v-14c0-1-0.8-1.8-1.8-1.8s-1.8,0.8-1.8,1.8v14h-31
		c-0.2,0-0.3,0-0.5,0.1L6.5,19.4c-0.7,0.2-1.3,0.9-1.2,1.7v20.9c0,0.8,0.5,1.5,1.2,1.7l10.6,3.2v5.5c0,0.6,0.3,1.2,0.9,1.5l6.5,3.7
		l-4.1,8.3c-7.5-0.9-14.3,4.5-15.1,12s4.5,14.3,12,15.1c7.5,0.9,14.3-4.5,15.1-12c0.4-3.7-0.7-7.4-3-10.2l6-9.9h16.6l-2.4,5
		c-7.5-0.9-14.3,4.5-15.1,12c-0.9,7.5,4.5,14.3,12,15.1c7.5,0.9,14.3-4.5,15.1-12c0.4-3.7-0.7-7.4-3-10.2l6-9.9h27.9l6,9.9
		c-4.8,5.8-3.9,14.4,1.9,19.2c5.8,4.8,14.4,3.9,19.2-1.9s3.9-14.4-1.9-19.2C115.3,66.8,112.3,65.7,109.1,65.7L109.1,65.7z
		 M101.2,68.3l-8-13c-0.7-1.1-0.3-2.6,0.8-3.2c1.1-0.7,2.6-0.3,3.2,0.8c0,0.1,0.1,0.1,0.1,0.2l6.7,13.7
		C103.1,67.1,102.1,67.6,101.2,68.3L101.2,68.3z M112.3,32.9v2.5l-27.2-3.3L78,28v-8.8h2.5L112.3,32.9z M8.8,22.3l10.4-3.1h55.4V29
		c0,0.6,0.3,1.2,0.9,1.5l8.2,4.8c0.2,0.1,0.4,0.2,0.7,0.2l28,3.4v2l-3.8,2.7H19.2L8.8,40.6L8.8,22.3z M30.7,52.9
		c0.6-1.2,2-1.7,3.2-1.1c1.2,0.6,1.7,2,1.1,3.2c0,0.1-0.1,0.1-0.1,0.2l-8,13.1c-0.9-0.6-1.9-1.2-2.9-1.6L30.7,52.9z M18.9,89.5
		c-5.6,0-10.1-4.5-10.2-10.1c0-5.6,4.5-10.1,10.1-10.2S29,73.8,29,79.4c0,0,0,0,0,0C29,85,24.5,89.5,18.9,89.5z M59.8,52.9
		c0.6-1.2,2-1.7,3.2-1.1c1.2,0.6,1.7,2,1.1,3.2c0,0.1-0.1,0.1-0.1,0.2l-8,13.1c-0.9-0.6-1.9-1.2-2.9-1.6L59.8,52.9z M48.1,89.5
		c-5.6,0-10.1-4.5-10.1-10.1s4.5-10.1,10.1-10.1s10.1,4.5,10.1,10.1l0,0C58.2,85,53.7,89.5,48.1,89.5z M66.8,57.3L67,57
		c1.7-2.7,0.9-6.4-1.9-8.1c-2.7-1.7-6.4-0.9-8.1,1.9c-0.1,0.2-0.2,0.4-0.3,0.6l-2.9,5.9H37.6l0.2-0.3c1.7-2.8,0.8-6.4-1.9-8.1
		c-2.8-1.7-6.4-0.8-8.1,1.9c-0.1,0.2-0.2,0.3-0.3,0.5l-1.5,3l-5.4-3.1v-4.1h86.7v4.1l-5.4,3.1l-1.4-3c-1.4-2.9-4.9-4.1-7.8-2.7
		c-2.9,1.4-4.1,4.9-2.7,7.8c0.1,0.2,0.2,0.4,0.3,0.6l0.2,0.3L66.8,57.3z M109.1,89.5C103.5,89.5,99,85,99,79.4
		c0-5.6,4.5-10.1,10.1-10.1c5.6,0,10.1,4.5,10.1,10.1C119.2,85,114.7,89.5,109.1,89.5z"/>
	<path d="M109.1,72.7c-3.7,0-6.7,3-6.7,6.7c0,3.7,3,6.7,6.7,6.7c3.7,0,6.7-3,6.7-6.7l0,0C115.8,75.7,112.8,72.7,109.1,72.7z
		 M109.1,82.6c-1.8,0-3.2-1.4-3.2-3.2s1.4-3.2,3.2-3.2c1.8,0,3.2,1.4,3.2,3.2l0,0C112.3,81.1,110.9,82.6,109.1,82.6z"/>
	<path d="M48.1,72.7c-3.7,0-6.7,3-6.7,6.7s3,6.7,6.7,6.7c3.7,0,6.7-3,6.7-6.7l0,0C54.8,75.7,51.8,72.7,48.1,72.7z M48.1,82.6
		c-1.8,0-3.2-1.4-3.2-3.2s1.4-3.2,3.2-3.2c1.8,0,3.2,1.4,3.2,3.2l0,0C51.3,81.1,49.8,82.6,48.1,82.6z"/>
	<path d="M51.6,30.8c1,0,1.7-0.8,1.8-1.8v-4.1c0-1-0.8-1.8-1.8-1.8s-1.8,0.8-1.8,1.8V29C49.9,30,50.7,30.8,51.6,30.8z"/>
	<path d="M41.6,30.8c1,0,1.7-0.8,1.8-1.8v-4.1c0-1-0.8-1.8-1.8-1.8s-1.8,0.8-1.8,1.8V29C39.9,30,40.7,30.8,41.6,30.8z"/>
	<path d="M31.6,30.8c1,0,1.7-0.8,1.8-1.8v-4.1c0-1-0.8-1.8-1.8-1.8c-1,0-1.8,0.8-1.8,1.8V29C29.9,30,30.7,30.8,31.6,30.8z"/>
</g>
</svg>