<?xml version="1.0"?>
<svg fill="none" height="512" viewBox="0 0 24 24" width="512" xmlns="http://www.w3.org/2000/svg">
  <path clip-rule="evenodd"
    d="m4 7.5c0-1.933 1.567-3.5 3.5-3.5s3.5 1.567 3.5 3.5v1.5h2v-1.5c0-1.933 1.567-3.5 3.5-3.5s3.5 1.567 3.5 3.5-1.567 3.5-3.5 3.5h-1.5v2h1.5c1.933 0 3.5 1.567 3.5 3.5s-1.567 3.5-3.5 3.5-3.5-1.567-3.5-3.5v-1.5h-2v1.5c0 1.933-1.567 3.5-3.5 3.5s-3.5-1.567-3.5-3.5 1.567-3.5 3.5-3.5h1.5v-2h-1.5c-1.933 0-3.5-1.567-3.5-3.5zm5 1.5v-1.5c0-.82843-.67157-1.5-1.5-1.5s-1.5.67157-1.5 1.5.67157 1.5 1.5 1.5zm2 2v2h2v-2zm-2 4h-1.5c-.82843 0-1.5.6716-1.5 1.5s.67157 1.5 1.5 1.5 1.5-.6716 1.5-1.5zm6 0v1.5c0 .8284.6716 1.5 1.5 1.5s1.5-.6716 1.5-1.5-.6716-1.5-1.5-1.5zm0-6h1.5c.8284 0 1.5-.67157 1.5-1.5s-.6716-1.5-1.5-1.5-1.5.67157-1.5 1.5z"
    fill="rgb(0,0,0)" fill-rule="evenodd" />
</svg>